<svg width="20" height="21" viewBox="0 0 34 34" fill="none" xmlns="http://www.w3.org/2000/svg">
    <g clip-path="url(#clip0_338_61)">
        <path d="M20.5416 0.708496H6.37492C4.87203 0.708496 3.43069 1.30552 2.36798 2.36822C1.30527 3.43093 0.708252 4.87227 0.708252 6.37516V13.4585C0.708252 14.9614 1.30527 16.4027 2.36798 17.4654C3.43069 18.5281 4.87203 19.1252 6.37492 19.1252H7.79159V24.7918L14.1666 19.1252H20.5416C22.0445 19.1252 23.4858 18.5281 24.5485 17.4654C25.6112 16.4027 26.2083 14.9614 26.2083 13.4585V6.37516C26.2083 4.87227 25.6112 3.43093 24.5485 2.36822C23.4858 1.30552 22.0445 0.708496 20.5416 0.708496V0.708496Z" stroke="#5E584E" stroke-linecap="round" stroke-linejoin="round"/>
        <path d="M16.2917 23.3752V25.5002C16.2917 25.9653 16.3834 26.4258 16.5613 26.8555C16.7393 27.2852 17.0002 27.6756 17.3291 28.0045C17.658 28.3334 18.0484 28.5942 18.4781 28.7722C18.9078 28.9502 19.3683 29.0418 19.8334 29.0418H23.3751L27.6251 33.2918V29.0418H29.7501C30.2152 29.0418 30.6757 28.9502 31.1054 28.7722C31.5351 28.5942 31.9255 28.3334 32.2544 28.0045C32.5833 27.6756 32.8442 27.2852 33.0222 26.8555C33.2001 26.4258 33.2917 25.9653 33.2917 25.5002V21.2502C33.2917 20.3109 32.9186 19.41 32.2544 18.7458C31.5902 18.0816 30.6894 17.7085 29.7501 17.7085H29.0417" stroke="#5E584E" stroke-linecap="round" stroke-linejoin="round"/>
    </g>
<defs>
    <clipPath id="clip0_338_61">
        <rect width="34" height="34" fill="white"/>
    </clipPath>
    </defs>
</svg>