<svg width="72" height="81" viewBox="0 0 72 81" fill="none" xmlns="http://www.w3.org/2000/svg">
<g clip-path="url(#clip0)">
<path d="M37.7999 80.4001C38.1999 80.1001 37.6999 78.2001 37.4999 77.3001C37.2999 76.4001 37.7999 75.7001 38.8999 74.8001C40.0999 73.9001 40.2999 72.7001 39.8999 71.5001C39.4999 70.2001 40.1999 68.6001 41.2999 68.0001C42.3999 67.4001 41.8999 66.2001 41.6999 65.3001C41.4999 64.4001 41.6999 63.6001 42.9999 63.1001C44.2999 62.6001 43.9999 61.5001 43.8999 60.3001C43.7999 59.2001 45.8999 59.9001 45.8999 57.3001C47.5999 55.4001 56.3999 53.2001 58.8999 52.7001C66.9999 50.8001 80.0999 42.0001 51.4999 40.8001C44.6999 21.9001 27.9999 19.1001 19.4999 25.1001C17.0999 26.8001 15.3999 31.5001 13.6999 37.0001C12.8999 39.0001 12.1999 38.9001 11.9999 40.5001C11.7999 42.0001 12.8999 44.1001 11.1999 45.2001C8.0999 47.3001 9.9999 50.2001 9.9999 51.3001C9.9999 52.4001 9.1999 54.0001 8.1999 54.9001C7.0999 55.8001 6.6999 58.3001 7.0999 59.3001C7.5999 60.4001 6.5999 63.5001 5.6999 63.4001C4.5999 63.3001 3.7999 65.4001 4.4999 66.8001C4.8999 67.7001 4.1999 70.9001 0.399902 71.7001" stroke="#F4F4EC" stroke-miterlimit="10" stroke-linecap="round" stroke-linejoin="round"/>
<path d="M64.1998 42C64.1998 42 61.5998 47.2 65.0998 49C68.5998 50.9 68.6998 44.6 68.6998 44.6L64.1998 42Z" fill="#F4F4EC"/>
<path d="M56.4001 53.2002C56.4001 53.2002 40.2001 55.7002 38.6001 51.7002" stroke="#F4F4EC" stroke-miterlimit="10" stroke-linecap="round"/>
<path d="M40.4998 36.9C40.0998 40.7 41.9998 42.4 43.5998 42.4C46.1998 42.3 45.4998 36.5 45.4998 36.5" stroke="#F4F4EC" stroke-miterlimit="10" stroke-linecap="round"/>
<path d="M35.1998 23.2998C36.6998 23.7998 36.2998 25.8998 35.1998 27.5998C35.1998 27.5998 32.9998 29.3998 33.8998 31.1998C34.7998 32.9998 35.3998 33.1998 33.1998 35.1998C30.9998 37.1998 32.9998 39.3998 32.6998 40.4998C32.2998 41.5998 30.5998 42.2998 30.4998 42.9998C30.2998 43.6998 31.4998 45.3998 30.5998 46.5998C29.6998 47.8998 28.0998 48.1998 27.8998 49.4998C27.6998 50.7998 27.7998 51.8998 26.7998 52.9998C25.6998 54.1998 24.0998 54.8998 21.1998 53.8998C18.9998 53.0998 19.5998 50.3998 18.2998 49.7998C15.9998 48.5998 15.7998 46.4998 16.2998 44.8998C16.7998 43.2998 17.7998 41.7998 16.9998 41.0998C15.3998 39.5998 16.4998 37.0998 17.1998 35.4998C17.8998 33.8998 16.6998 30.3998 16.6998 30.3998" stroke="#F4F4EC" stroke-miterlimit="10" stroke-linecap="round"/>
<path d="M13.5 23.8001C13.7 25.0001 14.5 27.8001 17.7 27.6001C23.8 27.1001 25 30.0001 29 31.3001C34 32.9001 40.5 30.4001 41.9 29.5001C43.4 28.7001 47.3 26.3001 46.3 21.7001L45.2 18.1001L13.5 23.8001Z" fill="#5E584E"/>
<path d="M13.5 23.8001C13.7 25.0001 14.5 27.8001 17.7 27.6001C23.8 27.1001 25 30.0001 29 31.3001C34 32.9001 40.5 30.4001 41.9 29.5001C43.4 28.7001 47.3 26.3001 46.3 21.7001L45.2 18.1001L13.5 23.8001Z" stroke="#F4F4EC" stroke-miterlimit="10" stroke-linecap="round"/>
<path d="M14.3002 21C17.6002 18 22.8002 15.7 29.4002 14.6C36.0002 13.6 44.4002 13.5 45.3002 18.1C46.2002 22.7 42.0002 26.1 40.6002 27C39.1002 27.8 33.8002 29.5 28.8002 27.9C24.8002 26.6 24.3002 23.9 16.8002 25.1C13.3002 25.5 12.6002 22.5 14.3002 21Z" fill="#5E584E"/>
<path d="M14.3002 21C17.6002 18 22.8002 15.7 29.4002 14.6C36.0002 13.6 44.4002 13.5 45.3002 18.1C46.2002 22.7 42.0002 26.1 40.6002 27C39.1002 27.8 33.8002 29.5 28.8002 27.9C24.8002 26.6 24.3002 23.9 16.8002 25.1C13.3002 25.5 12.6002 22.5 14.3002 21Z" stroke="#F4F4EC" stroke-miterlimit="10" stroke-linecap="round"/>
<path d="M16.2999 22.2999C15.6999 20.0999 26.8999 15.7999 37.6999 16.5999C44.5999 16.8999 42.9999 20.6999 41.0999 22.5999C38.5999 25.0999 33.5999 26.9999 28.1999 24.2999C20.6999 20.3999 16.8999 24.6999 16.2999 22.2999Z" fill="#F4F4EC"/>
<path d="M22.6 19.7002C21.2 19.4002 19.7 20.1002 19.2 20.7002C18.7 21.3002 19.1 21.6002 20.8 21.7002C22.4 21.7002 23.8 20.0002 22.6 19.7002Z" fill="#5E584E"/>
<path d="M19.8002 13.4001L27.0002 12.7001C27.5002 12.6001 28.0002 12.6001 28.5002 12.6001L33.2002 12.5001C33.5002 12.5001 33.8002 12.5001 34.1002 12.4001L37.9002 11.5001C38.1002 11.5001 38.3002 11.4001 38.5002 11.4001L46.8002 10.3001C50.4002 9.90015 53.5002 12.8001 53.3002 16.4001C53.2002 20.1001 49.8002 22.7001 46.2002 21.9001C46.2002 21.9001 44.8002 21.6001 43.7002 21.4001C42.9002 21.3001 42.1002 21.0001 41.4002 20.7001L39.8002 20.1001C39.2002 19.8001 38.6002 19.7001 37.9002 19.7001H37.5002C37.1002 19.7001 36.6002 19.7001 36.2002 19.7001L19.7002 17.0001C17.5002 16.7001 17.7002 13.7001 19.8002 13.4001Z" fill="#5E584E"/>
<path d="M19.8002 13.4001L27.0002 12.7001C27.5002 12.6001 28.0002 12.6001 28.5002 12.6001L33.2002 12.5001C33.5002 12.5001 33.8002 12.5001 34.1002 12.4001L37.9002 11.5001C38.1002 11.5001 38.3002 11.4001 38.5002 11.4001L46.8002 10.3001C50.4002 9.90015 53.5002 12.8001 53.3002 16.4001C53.2002 20.1001 49.8002 22.7001 46.2002 21.9001C46.2002 21.9001 44.8002 21.6001 43.7002 21.4001C42.9002 21.3001 42.1002 21.0001 41.4002 20.7001L39.8002 20.1001C39.2002 19.8001 38.6002 19.7001 37.9002 19.7001H37.5002C37.1002 19.7001 36.6002 19.7001 36.2002 19.7001L19.7002 17.0001C17.5002 16.7001 17.7002 13.7001 19.8002 13.4001Z" stroke="#F4F4EC" stroke-miterlimit="10" stroke-linecap="round"/>
<path d="M44.4001 21.5002C44.4001 21.5002 41.9001 19.1002 42.4001 16.2002L44.4001 21.5002Z" fill="#5E584E"/>
<path d="M44.4001 21.5002C44.4001 21.5002 41.9001 19.1002 42.4001 16.2002" stroke="#F4F4EC" stroke-miterlimit="10" stroke-linecap="round"/>
<path d="M31.9001 19C31.9001 19 31.1001 17.8 31.2001 16L31.9001 19Z" fill="#5E584E"/>
<path d="M31.9001 19C31.9001 19 31.1001 17.8 31.2001 16" stroke="#F4F4EC" stroke-miterlimit="10" stroke-linecap="round"/>
<path d="M38.7999 19.7999C38.7999 19.7999 37.9999 18.5999 37.8999 16.8999L38.7999 19.7999Z" fill="#5E584E"/>
<path d="M38.7999 19.7999C38.7999 19.7999 37.9999 18.5999 37.8999 16.8999" stroke="#F4F4EC" stroke-miterlimit="10" stroke-linecap="round"/>
<path d="M26.4999 16.2002C26.4999 16.2002 25.8999 14.9002 26.0999 13.2002L26.4999 16.2002Z" fill="#5E584E"/>
<path d="M26.4999 16.2002C26.4999 16.2002 25.8999 14.9002 26.0999 13.2002" stroke="#F4F4EC" stroke-miterlimit="10" stroke-linecap="round"/>
<path d="M53.1001 18.7998C53.1001 18.7998 58.6001 28.2998 60.8001 25.1998C62.5001 22.7998 54.5001 17.2998 53.7001 17.2998" fill="#5E584E"/>
<path d="M53.1001 18.7998C53.1001 18.7998 58.6001 28.2998 60.8001 25.1998C62.5001 22.7998 54.5001 17.2998 53.7001 17.2998" stroke="#F4F4EC" stroke-miterlimit="10" stroke-linecap="round"/>
<path d="M53.5998 15.6002C53.5998 15.6002 66.4998 13.7002 63.3998 10.6002C61.1998 8.40017 55.3998 12.6002 52.7998 13.3002" fill="#5E584E"/>
<path d="M53.5998 15.6002C53.5998 15.6002 66.4998 13.7002 63.3998 10.6002C61.1998 8.40017 55.3998 12.6002 52.7998 13.3002" stroke="#F4F4EC" stroke-miterlimit="10" stroke-linecap="round"/>
<path d="M53.2002 17.2C53.2002 17.2 71.1002 21.6 71.0002 16.8C70.9002 11.7 53.7002 15.5 53.7002 15.5" fill="#5E584E"/>
<path d="M53.2002 17.2C53.2002 17.2 71.1002 21.6 71.0002 16.8C70.9002 11.7 53.7002 15.5 53.7002 15.5" stroke="#F4F4EC" stroke-miterlimit="10" stroke-linecap="round"/>
<path d="M31.3001 0.0999709C27.9001 0.899971 20.1001 3.99997 18.6001 4.99997C17.1001 5.99997 16.3001 6.39997 14.5001 7.79997C12.8001 9.09997 10.3001 8.29997 11.2001 9.69997C13.4001 13.1 17.7001 12.9 20.4001 13.5C24.5001 14.5 30.7001 14.4 33.8001 13.4C37.8001 12.1 37.9001 6.09997 37.1001 3.89997C35.8001 0.199971 33.4001 -0.300029 31.3001 0.0999709Z" fill="#F4F4EC"/>
<path d="M35.1 2.00003C33.6 0.400031 31.1 1.00003 30.3 3.10003C29 6.70003 28.7 12.3 32 12.5C36.6 12.8 37.4 6.40003 36.1 3.60003C35.8 3.00003 35.4 2.40003 35.1 2.00003Z" fill="#5E584E"/>
<path d="M47.4001 11L47.5001 9L34.6001 9.5V10.8C34.6001 11.7 35.1001 12.6 36.0001 12.9C37.3001 13.5 39.2001 13.9 41.2001 13.8C43.0001 13.7 44.7001 13.5 45.8001 13.1C46.7001 12.8 47.3001 12 47.4001 11Z" fill="#F4F4EC"/>
<path d="M35.9001 7.69997C34.3001 8.99997 35.1001 11.1 37.3001 11.6C41.1001 12.4 46.9001 12.3 47.0001 9.59997C47.1001 5.79997 40.4001 5.59997 37.5001 6.79997C36.8001 6.99997 36.3001 7.39997 35.9001 7.69997Z" fill="#5E584E"/>
<path d="M35.9001 7.69997C34.3001 8.99997 35.1001 11.1 37.3001 11.6C41.1001 12.4 46.9001 12.3 47.0001 9.59997C47.1001 5.79997 40.4001 5.59997 37.5001 6.79997C36.8001 6.99997 36.3001 7.39997 35.9001 7.69997Z" stroke="#F4F4EC" stroke-width="0.933" stroke-miterlimit="10" stroke-linecap="round"/>
<path d="M49.1002 6L49.0002 4L36.2002 5.7L36.3002 7C36.4002 7.9 37.0002 8.7 37.9002 9C39.2002 9.5 41.2002 9.7 43.1002 9.5C44.9002 9.2 46.5002 8.9 47.6002 8.4C48.5002 7.9 49.1002 7 49.1002 6Z" fill="#F4F4EC"/>
<path d="M37.3 3.70017C35.8 5.20017 36.8 7.20017 39 7.40017C42.8 7.90017 48.6 7.20017 48.5 4.50017C48.3 0.700166 41.6 1.10017 38.8 2.50017C38.2 3.00017 37.7 3.30017 37.3 3.70017Z" fill="#5E584E"/>
<path d="M37.3 3.70017C35.8 5.20017 36.8 7.20017 39 7.40017C42.8 7.90017 48.6 7.20017 48.5 4.50017C48.3 0.700166 41.6 1.10017 38.8 2.50017C38.2 3.00017 37.7 3.30017 37.3 3.70017Z" stroke="#F4F4EC" stroke-width="0.933" stroke-miterlimit="10" stroke-linecap="round"/>
</g>
<defs>
<clipPath id="clip0">
<rect width="71.4" height="80.9" fill="white"/>
</clipPath>
</defs>
</svg>
