<svg width="26" height="24" viewBox="0 0 26 24" fill="none" xmlns="http://www.w3.org/2000/svg">
<g clip-path="url(#clip0_1_2707)">
<path d="M13.0047 20.0622C14.7742 20.0622 16.3915 19.7483 17.8661 19.2441L16.6199 17.9978C15.4877 18.3498 14.2891 18.5591 13.0047 18.5591C6.73547 18.5591 1.66484 13.2507 1.66484 11.9093C1.66484 11.2433 3.42481 9.02672 6.23125 7.34285L5.0516 6.16319C1.88364 8.12295 0 10.7582 0 11.9093C0 13.85 5.41311 20.0622 13.0047 20.0622ZM13.0047 3.75631C11.3495 3.75631 9.84633 4.04171 8.44783 4.50787L9.70362 5.75412C10.7501 5.44018 11.8251 5.25942 13.0047 5.25942C19.2646 5.25942 24.3352 10.7772 24.3352 11.9093C24.3352 12.6798 22.6704 14.7538 20.0352 16.371L21.2053 17.5412C24.2115 15.591 26 13.0318 26 11.9093C26 9.95903 20.6916 3.75631 13.0047 3.75631ZM13.0047 17.2367C13.842 17.2367 14.6315 17.0275 15.3355 16.685L8.20055 9.54995C7.84853 10.2539 7.64875 11.0531 7.64875 11.9093C7.65826 14.8108 10.0271 17.2367 13.0047 17.2367ZM17.8851 13.9927C18.18 13.3553 18.3418 12.6418 18.3418 11.9093C18.3418 8.93158 15.9635 6.58178 13.0047 6.58178C12.2533 6.58178 11.5493 6.74351 10.9118 7.0194L17.8851 13.9927ZM20.4062 20.1478C20.6916 20.4427 21.1482 20.4618 21.4432 20.1478C21.7571 19.8339 21.7285 19.4058 21.4432 19.1109L5.53678 3.21405C5.25138 2.92865 4.78522 2.92865 4.49031 3.21405C4.21443 3.48994 4.21443 3.97512 4.49031 4.25101L20.4062 20.1478Z" fill="#403C36"/>
</g>
<defs>
<clipPath id="clip0_1_2707">
<rect width="26" height="17.809" fill="white" transform="translate(0 3)"/>
</clipPath>
</defs>
</svg>
