<svg width="12" height="20" viewBox="0 0 12 20" fill="none" xmlns="http://www.w3.org/2000/svg">
<path d="M1.27131 10.652H3.46363V19.6774C3.46363 19.8556 3.60802 20 3.78621 20H7.50338C7.68157 20 7.82596 19.8556 7.82596 19.6774V10.6945H10.3462C10.5101 10.6945 10.648 10.5715 10.6667 10.4088L11.0494 7.08606C11.06 6.99465 11.031 6.9031 10.9698 6.83452C10.9086 6.76587 10.821 6.72658 10.7291 6.72658H7.82609V4.64374C7.82609 4.01587 8.16415 3.69748 8.83099 3.69748C8.92602 3.69748 10.7291 3.69748 10.7291 3.69748C10.9072 3.69748 11.0516 3.55303 11.0516 3.3749V0.324968C11.0516 0.146774 10.9072 0.0023871 10.7291 0.0023871H8.11325C8.09479 0.00148387 8.05383 0 7.99344 0C7.53957 0 5.96196 0.0890967 4.71576 1.23555C3.33499 2.506 3.52692 4.02716 3.57279 4.2909V6.72652H1.27131C1.09312 6.72652 0.94873 6.8709 0.94873 7.0491V10.3294C0.94873 10.5075 1.09312 10.652 1.27131 10.652Z" fill="#F4F4EC"/>
</svg>
