<svg width="189" height="56" viewBox="0 0 189 56" fill="none" xmlns="http://www.w3.org/2000/svg">
<path d="M187.747 49.3897C187.747 50.0946 187.608 50.7925 187.338 51.4436C187.068 52.0946 186.672 52.6862 186.173 53.1843C185.674 53.6824 185.082 54.0773 184.431 54.3465C183.779 54.6158 183.081 54.7539 182.376 54.7532H6.62457C5.2001 54.7547 3.83336 54.1905 2.82492 53.1847C1.81648 52.1789 1.24893 50.8138 1.24707 49.3897V6.61779C1.24893 5.19305 1.81626 3.82728 2.82449 2.82036C3.83273 1.81344 5.19945 1.24768 6.62457 1.24731H182.375C183.08 1.24731 183.778 1.38624 184.43 1.65614C185.082 1.92605 185.674 2.32166 186.173 2.82038C186.671 3.31909 187.067 3.91114 187.337 4.5627C187.607 5.21427 187.745 5.91259 187.745 6.61779L187.747 49.3897Z" fill="white"/>
<path d="M42.2021 27.7059C42.1615 23.1924 45.8987 20.9966 46.0696 20.8944C43.953 17.8094 40.6725 17.3878 39.5196 17.3542C36.7644 17.0643 34.0917 19.0025 32.6882 19.0025C31.2566 19.0025 29.0952 17.3822 26.7658 17.4298C23.7681 17.4761 20.9638 19.2111 19.4258 21.9055C16.2517 27.3992 18.619 35.4724 21.66 39.913C23.1812 42.0892 24.9588 44.5161 27.2854 44.4307C29.5617 44.3382 30.4119 42.9813 33.1588 42.9813C35.8805 42.9813 36.6789 44.4307 39.0518 44.3761C41.4947 44.3382 43.0327 42.1915 44.5007 39.9971C46.2587 37.5058 46.9647 35.0495 46.9927 34.9235C46.9366 34.9038 42.2497 33.1142 42.2021 27.7059ZM37.7197 14.433C38.9439 12.9024 39.7816 10.82 39.5491 8.70685C37.7771 8.78527 35.5611 9.93219 34.285 11.4292C33.156 12.7484 32.1475 14.9106 32.408 16.9439C34.3985 17.0924 36.4422 15.9398 37.7197 14.433Z" fill="#0A0A0A"/>
<path d="M75.1716 44.1172H71.9905L70.2479 38.6431H64.191L62.5312 44.1172H59.4341L65.4363 25.4809H69.1427L75.1716 44.1172ZM69.7226 36.3465L68.1468 31.4801C67.9801 30.983 67.6663 29.8123 67.2069 27.9694H67.1508C66.9659 28.762 66.6704 29.9327 66.2656 31.4801L64.7163 36.3465H69.7226ZM90.5771 37.2329C90.5771 39.5183 89.9566 41.3248 88.7141 42.651C87.6019 43.8315 86.2193 44.4211 84.5706 44.4211C82.7903 44.4211 81.51 43.7867 80.7326 42.5152V49.5661H77.7462V35.0959C77.7462 33.6605 77.7083 32.1887 77.6355 30.6791H80.2619L80.4286 32.8091H80.4846C81.4806 31.2043 82.992 30.4018 85.0203 30.4018C86.6059 30.4018 87.9297 31.0278 88.9886 32.2812C90.0462 33.5373 90.5771 35.187 90.5771 37.2329ZM87.5346 37.3422C87.5346 36.0342 87.2405 34.9559 86.6494 34.1059C86.0036 33.2222 85.1365 32.7797 84.0496 32.7797C83.3128 32.7797 82.6432 33.0262 82.0451 33.5121C81.4456 34.0022 81.0534 34.6422 80.8699 35.4348C80.7879 35.7312 80.7414 36.0363 80.7312 36.3437V38.5857C80.7312 39.5618 81.0309 40.3866 81.6305 41.0616C82.23 41.7338 83.0088 42.0712 83.9669 42.0712C85.0917 42.0712 85.9672 41.6357 86.5933 40.7717C87.2209 39.9049 87.5346 38.7621 87.5346 37.3422ZM106.037 37.2329C106.037 39.5183 105.417 41.3248 104.174 42.651C103.061 43.8315 101.679 44.4211 100.029 44.4211C98.249 44.4211 96.9687 43.7867 96.1913 42.5152V49.5661H93.2049V35.0959C93.2049 33.6605 93.1671 32.1887 93.0942 30.6791H95.7207L95.8874 32.8091H95.9434C96.9379 31.2043 98.4493 30.4018 100.479 30.4018C102.063 30.4018 103.387 31.0278 104.449 32.2812C105.505 33.5373 106.037 35.187 106.037 37.2329ZM102.993 37.3422C102.993 36.0342 102.698 34.9559 102.107 34.1059C101.461 33.2222 100.597 32.7797 99.5097 32.7797C98.7729 32.7797 98.1034 33.0262 97.5024 33.5121C96.9029 34.0022 96.5121 34.6422 96.3286 35.4348C96.2375 35.8045 96.1885 36.1056 96.1885 36.3437V38.5857C96.1885 39.5618 96.4897 40.3866 97.0864 41.0616C97.6859 41.7324 98.4647 42.0712 99.4257 42.0712C100.552 42.0712 101.427 41.6357 102.052 40.7717C102.68 39.9049 102.993 38.7621 102.993 37.3422ZM123.323 38.8896C123.323 40.4762 122.768 41.766 121.665 42.7616C120.452 43.8483 118.759 44.3931 116.588 44.3931C114.582 44.3931 112.974 44.0066 111.761 43.2322L112.451 40.7437C113.761 41.5195 115.2 41.906 116.766 41.906C117.892 41.906 118.767 41.6511 119.392 41.1456C120.018 40.6387 120.335 39.9609 120.335 39.115C120.335 38.3574 120.073 37.7231 119.559 37.2063C119.042 36.691 118.187 36.2106 116.987 35.7695C113.723 34.5526 112.09 32.7727 112.09 30.4313C112.09 28.902 112.667 27.6501 113.818 26.6712C114.97 25.6937 116.497 25.205 118.396 25.205C120.092 25.205 121.506 25.5005 122.628 26.0901L121.878 28.5239C120.822 27.9526 119.63 27.6669 118.297 27.6669C117.243 27.6669 116.417 27.926 115.826 28.4413C115.328 28.902 115.076 29.4636 115.076 30.1302C115.076 30.8654 115.363 31.4759 115.935 31.9549C116.431 32.396 117.336 32.8763 118.644 33.3917C120.249 34.0386 121.429 34.792 122.184 35.6575C122.944 36.5229 123.323 37.6026 123.323 38.8896ZM133.222 32.9197H129.93V39.4441C129.93 41.1036 130.51 41.9312 131.672 41.9312C132.206 41.9312 132.649 41.8864 132.999 41.7926L133.082 44.0598C132.493 44.2797 131.719 44.3903 130.759 44.3903C129.58 44.3903 128.658 44.0304 127.993 43.3106C127.33 42.5908 126.997 41.3851 126.997 39.6878V32.9141H125.036V30.6735H126.997V28.213L129.93 27.328V30.6735H133.222V32.9197ZM148.045 37.2875C148.045 39.3531 147.453 41.049 146.274 42.3751C145.04 43.7405 143.398 44.4211 141.352 44.4211C139.377 44.4211 137.806 43.7671 136.635 42.4606C135.464 41.1512 134.879 39.5015 134.879 37.5116C134.879 35.4292 135.484 33.7236 136.69 32.3974C137.899 31.0698 139.527 30.406 141.573 30.406C143.545 30.406 145.13 31.0614 146.329 32.3694C147.474 33.6381 148.045 35.2766 148.045 37.2875ZM144.949 37.3562C144.949 36.1252 144.683 35.0693 144.149 34.1857C143.523 33.1186 142.626 32.585 141.465 32.585C140.269 32.585 139.351 33.1186 138.727 34.1857C138.192 35.0693 137.925 36.1434 137.925 37.4122C137.925 38.6445 138.192 39.7032 138.727 40.584C139.372 41.6511 140.273 42.1847 141.44 42.1847C142.582 42.1847 143.477 41.6399 144.124 40.5574C144.673 39.6528 144.949 38.5899 144.949 37.3562ZM157.756 33.3048C157.445 33.2488 157.13 33.2211 156.815 33.2222C155.764 33.2222 154.952 33.6171 154.38 34.4125C153.884 35.1127 153.635 35.9978 153.635 37.0663V44.1172H150.648V34.9111C150.651 33.5004 150.622 32.0899 150.562 30.6805H153.163L153.272 33.2516H153.355C153.671 32.368 154.167 31.6552 154.848 31.1216C155.471 30.6554 156.228 30.4029 157.007 30.4018C157.282 30.4018 157.532 30.4215 157.753 30.4565L157.756 33.3048ZM171.112 36.7624C171.12 37.2163 171.083 37.6698 171.003 38.1166H162.044C162.077 39.4441 162.512 40.4608 163.344 41.161C164.099 41.7856 165.075 42.0993 166.274 42.0993C167.6 42.0993 168.811 41.8892 169.899 41.4649L170.367 43.5361C169.095 44.0906 167.593 44.3665 165.861 44.3665C163.776 44.3665 162.14 43.7531 160.95 42.5292C159.762 41.3038 159.166 39.657 159.166 37.5942C159.166 35.5693 159.72 33.8818 160.828 32.536C161.988 31.0992 163.555 30.3808 165.527 30.3808C167.465 30.3808 168.931 31.0992 169.927 32.536C170.716 33.6745 171.112 35.0861 171.112 36.7624ZM168.264 35.988C168.285 35.1015 168.089 34.3383 167.684 33.6927C167.168 32.8609 166.372 32.4464 165.306 32.4464C164.33 32.4464 163.534 32.8511 162.929 33.6633C162.432 34.3089 162.136 35.0847 162.045 35.9852L168.264 35.988Z" fill="#0A0A0A"/>
<path d="M63.3297 18.8937C62.4991 18.8937 61.7805 18.8531 61.1824 18.7844V9.77436C62.0189 9.64517 62.8643 9.58149 63.7107 9.58391C67.1356 9.58391 68.7128 11.2686 68.7128 14.0147C68.7128 17.1824 66.8498 18.8937 63.3297 18.8937ZM63.8312 10.7392C63.369 10.7392 62.9753 10.7672 62.649 10.8345V17.6837C62.8255 17.7117 63.1644 17.7243 63.6407 17.7243C65.8847 17.7243 67.1622 16.4472 67.1622 14.0553C67.1622 11.9226 66.0066 10.7392 63.8312 10.7392ZM73.6281 18.9623C71.6978 18.9623 70.447 17.5213 70.447 15.565C70.447 13.526 71.7245 12.0724 73.7373 12.0724C75.6396 12.0724 76.9185 13.4448 76.9185 15.4571C76.9185 17.5213 75.6003 18.9623 73.6281 18.9623ZM73.6841 13.1451C72.6237 13.1451 71.9444 14.1366 71.9444 15.5229C71.9444 16.8827 72.6377 17.8742 73.6701 17.8742C74.7025 17.8742 75.3958 16.8141 75.3958 15.4949C75.3958 14.1506 74.7165 13.1451 73.6841 13.1451ZM87.9256 12.2082L85.8595 18.8124H84.5134L83.6575 15.9445C83.4447 15.2429 83.2675 14.5311 83.1266 13.8117H83.0986C82.9907 14.5315 82.7862 15.2527 82.5691 15.9445L81.6586 18.8124H80.2985L78.3542 12.2082H79.8629L80.6109 15.3479C80.7873 16.0957 80.9358 16.8015 81.0591 17.4681H81.0871C81.195 16.9121 81.3715 16.2175 81.6306 15.3619L82.5691 12.2096H83.7654L84.6632 15.2947C84.8804 16.0425 85.0569 16.7763 85.1941 17.4695H85.2333C85.3286 16.7903 85.4785 16.0691 85.6816 15.2947L86.4842 12.2096L87.9256 12.2082ZM95.5317 18.8124H94.0637V15.0202C94.0637 13.8523 93.6155 13.2669 92.7316 13.2669C91.8617 13.2669 91.2636 14.0147 91.2636 14.8844V18.8124H89.7956V14.0959C89.7956 13.512 89.7816 12.886 89.741 12.2068H91.0325L91.1011 13.2263H91.1417C91.5368 12.5205 92.338 12.0724 93.2359 12.0724C94.6226 12.0724 95.5331 13.1325 95.5331 14.8578L95.5317 18.8124ZM99.5799 18.8124H98.1105V9.1778H99.5799V18.8124ZM104.932 18.9623C103.003 18.9623 101.751 17.5213 101.751 15.565C101.751 13.526 103.029 12.0724 105.04 12.0724C106.944 12.0724 108.221 13.4448 108.221 15.4571C108.223 17.5213 106.903 18.9623 104.932 18.9623ZM104.987 13.1451C103.926 13.1451 103.247 14.1366 103.247 15.5229C103.247 16.8827 103.942 17.8742 104.971 17.8742C106.005 17.8742 106.697 16.8141 106.697 15.4949C106.699 14.1506 106.021 13.1451 104.987 13.1451ZM114.009 18.8124L113.903 18.052H113.863C113.415 18.664 112.761 18.9623 111.932 18.9623C110.748 18.9623 109.908 18.1333 109.908 17.0186C109.908 15.3885 111.321 14.5455 113.768 14.5455V14.4236C113.768 13.554 113.307 13.1185 112.397 13.1185C111.745 13.1185 111.174 13.2823 110.671 13.6086L110.373 12.6437C110.983 12.2628 111.745 12.0724 112.641 12.0724C114.366 12.0724 115.238 12.9826 115.238 14.8045V17.237C115.238 17.9036 115.267 18.4203 115.333 18.8138L114.009 18.8124ZM113.807 15.5229C112.177 15.5229 111.359 15.9178 111.359 16.8547C111.359 17.5479 111.78 17.8868 112.366 17.8868C113.113 17.8868 113.807 17.3168 113.807 16.5424V15.5229ZM122.366 18.8124L122.297 17.7524H122.257C121.835 18.5534 121.126 18.9623 120.136 18.9623C118.543 18.9623 117.364 17.5619 117.364 15.5916C117.364 13.526 118.587 12.071 120.256 12.071C121.14 12.071 121.766 12.3693 122.119 12.9686H122.149V9.1778H123.618V17.0326C123.618 17.6711 123.634 18.2691 123.673 18.8124H122.366ZM122.149 14.9264C122.149 14.0021 121.537 13.2137 120.602 13.2137C119.514 13.2137 118.849 14.1786 118.849 15.5369C118.849 16.8687 119.539 17.7804 120.573 17.7804C121.496 17.7804 122.149 16.9779 122.149 16.0271V14.9264ZM132.935 18.9623C131.006 18.9623 129.755 17.5213 129.755 15.565C129.755 13.526 131.032 12.0724 133.044 12.0724C134.948 12.0724 136.225 13.4448 136.225 15.4571C136.226 17.5213 134.908 18.9623 132.935 18.9623ZM132.989 13.1451C131.93 13.1451 131.251 14.1366 131.251 15.5229C131.251 16.8827 131.944 17.8742 132.975 17.8742C134.009 17.8742 134.701 16.8141 134.701 15.4949C134.704 14.1506 134.024 13.1451 132.989 13.1451ZM144.12 18.8124H142.65V15.0202C142.65 13.8523 142.202 13.2669 141.318 13.2669C140.448 13.2669 139.852 14.0147 139.852 14.8844V18.8124H138.382V14.0959C138.382 13.512 138.368 12.886 138.328 12.2068H139.619L139.688 13.2263H139.728C140.122 12.5205 140.925 12.071 141.821 12.071C143.208 12.071 144.12 13.1311 144.12 14.8564V18.8124ZM153.996 13.3089H152.381V16.5158C152.381 17.3322 152.664 17.7397 153.236 17.7397C153.495 17.7397 153.712 17.7117 153.887 17.6711L153.928 18.7858C153.643 18.8951 153.262 18.9497 152.789 18.9497C151.632 18.9497 150.94 18.3111 150.94 16.639V13.3089H149.976V12.2082H150.94V10.9983L152.381 10.5628V12.2068H153.996V13.3089ZM161.768 18.8124H160.301V15.0482C160.301 13.8663 159.854 13.2683 158.969 13.2683C158.209 13.2683 157.5 13.7851 157.5 14.8311V18.8124H156.033V9.1778H157.5V13.1451H157.529C157.991 12.4253 158.661 12.071 159.515 12.071C160.913 12.071 161.768 13.1577 161.768 14.8844V18.8124ZM169.73 15.8632H165.324C165.352 17.1138 166.18 17.8196 167.406 17.8196C168.057 17.8196 168.657 17.7103 169.186 17.5073L169.415 18.5268C168.79 18.7984 168.054 18.9343 167.199 18.9343C165.132 18.9343 163.91 17.6291 163.91 15.6056C163.91 13.5806 165.162 12.0584 167.033 12.0584C168.721 12.0584 169.78 13.3089 169.78 15.1981C169.79 15.421 169.773 15.6443 169.73 15.8632ZM168.384 14.8171C168.384 13.7977 167.87 13.0779 166.931 13.0779C166.088 13.0779 165.421 13.8117 165.326 14.8171H168.384Z" fill="#0A0A0A"/>
</svg>
