<svg width="189" height="56" viewBox="0 0 189 56" fill="none" xmlns="http://www.w3.org/2000/svg">
<path d="M182 56H7C3.08 56 0 52.92 0 49V7C0 3.08 3.08 0 7 0H182C185.92 0 189 3.08 189 7V49C189 52.78 185.92 56 182 56Z" fill="white"/>
<path d="M66.3597 14.2802C66.3597 15.4002 66.0797 16.3802 65.3797 17.0802C64.5397 17.9202 63.5597 18.3402 62.2997 18.3402C61.0397 18.3402 60.0597 17.9202 59.2197 17.0802C58.3797 16.2402 57.9597 15.2602 57.9597 14.0002C57.9597 12.7402 58.3797 11.7602 59.2197 10.9202C60.0597 10.0802 61.0397 9.66016 62.2997 9.66016C62.8597 9.66016 63.4197 9.80016 63.9797 10.0802C64.5397 10.3602 64.9597 10.6402 65.2397 11.0602L64.5397 11.7602C63.9797 11.0602 63.2797 10.7802 62.2997 10.7802C61.4597 10.7802 60.6197 11.0602 60.0597 11.7602C59.3597 12.3202 59.0797 13.1602 59.0797 14.1402C59.0797 15.1202 59.3597 15.9602 60.0597 16.5202C60.7597 17.0802 61.4597 17.5002 62.2997 17.5002C63.2797 17.5002 63.9797 17.2202 64.6797 16.5202C65.0997 16.1002 65.3797 15.5402 65.3797 14.8402H62.2997V13.8602H66.3597C66.3597 13.8602 66.3597 14.1402 66.3597 14.2802Z" fill="black" stroke="black" stroke-width="0.262937" stroke-miterlimit="10"/>
<path d="M72.7999 10.7808H69.0199V13.4408H72.5199V14.4208H69.0199V17.0808H72.7999V18.2008H67.8999V9.80078H72.7999V10.7808Z" fill="black" stroke="black" stroke-width="0.262937" stroke-miterlimit="10"/>
<path d="M77.4197 18.2008H76.2997V10.7808H73.9197V9.80078H79.7997V10.7808H77.4197V18.2008Z" fill="black" stroke="black" stroke-width="0.262937" stroke-miterlimit="10"/>
<path d="M83.8599 18.2008V9.80078H84.9799V18.2008H83.8599Z" fill="black" stroke="black" stroke-width="0.262937" stroke-miterlimit="10"/>
<path d="M89.7397 18.2008H88.6198V10.7808H86.2397V9.80078H91.9797V10.7808H89.5997V18.2008H89.7397Z" fill="black" stroke="black" stroke-width="0.262937" stroke-miterlimit="10"/>
<path d="M103.04 17.0802C102.2 17.9202 101.22 18.3402 99.9599 18.3402C98.6999 18.3402 97.7199 17.9202 96.8799 17.0802C96.0399 16.2402 95.6199 15.2602 95.6199 14.0002C95.6199 12.7402 96.0399 11.7602 96.8799 10.9202C97.7199 10.0802 98.6999 9.66016 99.9599 9.66016C101.22 9.66016 102.2 10.0802 103.04 10.9202C103.88 11.7602 104.3 12.7402 104.3 14.0002C104.3 15.2602 103.88 16.2402 103.04 17.0802ZM97.7199 16.3802C98.2799 16.9402 99.1199 17.3602 99.9599 17.3602C100.8 17.3602 101.64 17.0802 102.2 16.3802C102.76 15.8202 103.18 14.9802 103.18 14.0002C103.18 13.0202 102.9 12.1802 102.2 11.6202C101.64 11.0602 100.8 10.6402 99.9599 10.6402C99.1199 10.6402 98.2799 10.9202 97.7199 11.6202C97.1599 12.1802 96.7399 13.0202 96.7399 14.0002C96.7399 14.9802 97.0199 15.8202 97.7199 16.3802Z" fill="black" stroke="black" stroke-width="0.262937" stroke-miterlimit="10"/>
<path d="M105.84 18.2008V9.80078H107.1L111.16 16.3808V14.7008V9.80078H112.28V18.2008H111.16L106.82 11.3408V13.0208V18.2008H105.84Z" fill="black" stroke="black" stroke-width="0.262937" stroke-miterlimit="10"/>
<path d="M95.34 30.5195C91.98 30.5195 89.32 33.0395 89.32 36.5395C89.32 39.8995 91.98 42.5595 95.34 42.5595C98.7 42.5595 101.36 40.0394 101.36 36.5395C101.36 32.8995 98.7 30.5195 95.34 30.5195ZM95.34 40.0394C93.52 40.0394 91.98 38.4995 91.98 36.3995C91.98 34.2995 93.52 32.7595 95.34 32.7595C97.16 32.7595 98.7 34.1595 98.7 36.3995C98.7 38.4995 97.16 40.0394 95.34 40.0394ZM82.32 30.5195C78.96 30.5195 76.3 33.0395 76.3 36.5395C76.3 39.8995 78.96 42.5595 82.32 42.5595C85.68 42.5595 88.34 40.0394 88.34 36.5395C88.34 32.8995 85.68 30.5195 82.32 30.5195ZM82.32 40.0394C80.5 40.0394 78.96 38.4995 78.96 36.3995C78.96 34.2995 80.5 32.7595 82.32 32.7595C84.14 32.7595 85.68 34.1595 85.68 36.3995C85.68 38.4995 84.14 40.0394 82.32 40.0394ZM66.78 32.3394V34.8595H72.8C72.66 36.2595 72.1 37.3795 71.4 38.0795C70.56 38.9195 69.16 39.8995 66.78 39.8995C63 39.8995 60.2 36.9595 60.2 33.1795C60.2 29.3995 63.14 26.4595 66.78 26.4595C68.74 26.4595 70.28 27.2995 71.4 28.2795L73.22 26.4595C71.68 25.0595 69.72 23.9395 66.92 23.9395C61.88 23.9395 57.54 28.1395 57.54 33.1795C57.54 38.2195 61.88 42.4195 66.92 42.4195C69.72 42.4195 71.68 41.5795 73.36 39.7595C75.04 38.0795 75.6 35.6995 75.6 33.8795C75.6 33.3195 75.6 32.7594 75.46 32.3394H66.78ZM130.34 34.2995C129.78 32.8995 128.38 30.5195 125.3 30.5195C122.22 30.5195 119.7 32.8995 119.7 36.5395C119.7 39.8995 122.22 42.5595 125.58 42.5595C128.24 42.5595 129.92 40.8795 130.48 39.8995L128.52 38.4995C127.82 39.4795 126.98 40.1795 125.58 40.1795C124.18 40.1795 123.34 39.6195 122.64 38.3595L130.62 34.9995L130.34 34.2995ZM122.22 36.2595C122.22 34.0195 124.04 32.7595 125.3 32.7595C126.28 32.7595 127.26 33.3195 127.54 34.0195L122.22 36.2595ZM115.64 41.9995H118.3V24.4995H115.64V41.9995ZM111.44 31.7795C110.74 31.0795 109.62 30.3795 108.22 30.3795C105.28 30.3795 102.48 33.0395 102.48 36.3995C102.48 39.7595 105.14 42.2795 108.22 42.2795C109.62 42.2795 110.74 41.5795 111.3 40.8795H111.44V41.7195C111.44 43.9595 110.18 45.2195 108.22 45.2195C106.68 45.2195 105.56 44.0995 105.28 43.1195L103.04 44.0995C103.74 45.6395 105.42 47.5995 108.36 47.5995C111.44 47.5995 113.96 45.7794 113.96 41.4394V30.7995H111.44V31.7795ZM108.36 40.0394C106.54 40.0394 105 38.4995 105 36.3995C105 34.2995 106.54 32.7595 108.36 32.7595C110.18 32.7595 111.58 34.2995 111.58 36.3995C111.58 38.4995 110.18 40.0394 108.36 40.0394ZM142.52 24.4995H136.22V41.9995H138.88V35.4195H142.52C145.46 35.4195 148.26 33.3195 148.26 29.9595C148.26 26.5995 145.46 24.4995 142.52 24.4995ZM142.66 32.8995H138.88V26.8795H142.66C144.62 26.8795 145.74 28.5595 145.74 29.8195C145.6 31.3595 144.48 32.8995 142.66 32.8995ZM158.76 30.3795C156.8 30.3795 154.84 31.2195 154.14 33.0395L156.52 34.0195C157.08 33.0395 157.92 32.7595 158.9 32.7595C160.3 32.7595 161.56 33.5995 161.7 34.9995V35.1395C161.28 34.8595 160.16 34.4395 159.04 34.4395C156.52 34.4395 154 35.8395 154 38.3595C154 40.7395 156.1 42.2795 158.34 42.2795C160.16 42.2795 161 41.4395 161.7 40.5995H161.84V41.9995H164.36V35.2795C164.08 32.1995 161.7 30.3795 158.76 30.3795ZM158.48 40.0394C157.64 40.0394 156.38 39.6195 156.38 38.4995C156.38 37.0995 157.92 36.6795 159.18 36.6795C160.3 36.6795 160.86 36.9594 161.56 37.2395C161.28 38.9194 159.88 40.0394 158.48 40.0394ZM173.18 30.7995L170.24 38.3595H170.1L167.02 30.7995H164.22L168.84 41.4394L166.18 47.3195H168.84L175.98 30.7995H173.18ZM149.66 41.9995H152.32V24.4995H149.66V41.9995Z" fill="black"/>
<path d="M14.5596 10.5C14.1396 10.92 13.8596 11.62 13.8596 12.46V43.4C13.8596 44.24 14.1396 44.94 14.5596 45.36L14.6996 45.5L32.0596 28.14V28V27.86L14.5596 10.5Z" fill="url(#paint0_linear_1115_3297)"/>
<path d="M37.7996 34.0191L32.0596 28.2791V27.9991V27.8591L37.7996 22.1191L37.9396 22.2591L44.7996 26.1791C46.7596 27.2991 46.7596 29.1191 44.7996 30.2391L37.7996 34.0191Z" fill="url(#paint1_linear_1115_3297)"/>
<path d="M37.9401 33.88L32.0601 28L14.5601 45.5C15.2601 46.2 16.2401 46.2 17.5001 45.64L37.9401 33.88Z" fill="url(#paint2_linear_1115_3297)"/>
<path d="M37.9401 22.1193L17.5001 10.4993C16.2401 9.79928 15.2601 9.93928 14.5601 10.6393L32.0601 27.9993L37.9401 22.1193Z" fill="url(#paint3_linear_1115_3297)"/>
<path opacity="0.2" d="M37.7996 33.7402L17.4996 45.2202C16.3796 45.9202 15.3996 45.7802 14.6996 45.2202L14.5596 45.3602L14.6996 45.5002C15.3996 46.0602 16.3796 46.2002 17.4996 45.5002L37.7996 33.7402Z" fill="black"/>
<path opacity="0.12" d="M14.5595 45.2198C14.1395 44.7998 13.9995 44.0998 13.9995 43.2598V43.3998C13.9995 44.2398 14.2795 44.9398 14.6995 45.3598V45.2198H14.5595Z" fill="black"/>
<path opacity="0.12" d="M44.7996 29.82L37.7996 33.74L37.9396 33.88L44.7996 29.96C45.7796 29.4 46.1996 28.7 46.1996 28C46.1996 28.7 45.6396 29.26 44.7996 29.82Z" fill="black"/>
<path opacity="0.25" d="M17.4995 10.6405L44.7995 26.1805C45.6395 26.7405 46.1995 27.3005 46.1995 28.0005C46.1995 27.3005 45.7795 26.6005 44.7995 26.0405L17.4995 10.5005C15.5395 9.38052 13.9995 10.3605 13.9995 12.6005V12.7405C13.9995 10.5005 15.5395 9.52052 17.4995 10.6405Z" fill="white"/>
<defs>
<linearGradient id="paint0_linear_1115_3297" x1="30.5192" y1="12.1936" x2="7.02384" y2="35.6889" gradientUnits="userSpaceOnUse">
<stop stop-color="#00A0FF"/>
<stop offset="0.00657445" stop-color="#00A1FF"/>
<stop offset="0.2601" stop-color="#00BEFF"/>
<stop offset="0.5122" stop-color="#00D2FF"/>
<stop offset="0.7604" stop-color="#00DFFF"/>
<stop offset="1" stop-color="#00E3FF"/>
</linearGradient>
<linearGradient id="paint1_linear_1115_3297" x1="47.3677" y1="28.0011" x2="13.4921" y2="28.0011" gradientUnits="userSpaceOnUse">
<stop stop-color="#FFE000"/>
<stop offset="0.4087" stop-color="#FFBD00"/>
<stop offset="0.7754" stop-color="#FFA500"/>
<stop offset="1" stop-color="#FF9C00"/>
</linearGradient>
<linearGradient id="paint2_linear_1115_3297" x1="34.7579" y1="31.2145" x2="2.89624" y2="63.0762" gradientUnits="userSpaceOnUse">
<stop stop-color="#FF3A44"/>
<stop offset="1" stop-color="#C31162"/>
</linearGradient>
<linearGradient id="paint3_linear_1115_3297" x1="10.2163" y1="0.245959" x2="24.4439" y2="14.4735" gradientUnits="userSpaceOnUse">
<stop stop-color="#32A071"/>
<stop offset="0.0685" stop-color="#2DA771"/>
<stop offset="0.4762" stop-color="#15CF74"/>
<stop offset="0.8009" stop-color="#06E775"/>
<stop offset="1" stop-color="#00F076"/>
</linearGradient>
</defs>
</svg>
