<svg width="17" height="17" viewBox="0 0 17 17" fill="none" xmlns="http://www.w3.org/2000/svg">
<path fill-rule="evenodd" clip-rule="evenodd" d="M8.15991 0C12.6671 0 16.3198 3.65271 16.3198 8.15991C16.3198 12.6671 12.6671 16.3198 8.15991 16.3198C3.65271 16.3198 0 12.6671 0 8.15991C0 3.65271 3.65271 0 8.15991 0ZM6.01354 7.02171C6.00172 6.20437 7.87114 5.75517 8.71888 5.97977C10.8686 6.54887 7.758 11.5492 8.29501 12.2888C8.59391 12.7009 9.95334 12.3767 9.95334 12.7499C9.95334 13.1248 9.03129 14.0958 7.46078 13.7732C5.88858 13.449 6.31245 12.3513 6.52523 11.4664C6.73632 10.5815 7.64654 8.13627 7.64654 7.7124C7.64654 6.38337 5.99328 7.37128 6.01354 7.02171ZM9.07858 2.48242C9.75744 2.48242 10.3063 3.03126 10.3063 3.71013C10.3063 4.38899 9.75744 4.93783 9.07858 4.93783C8.39971 4.93783 7.85088 4.38899 7.85088 3.71013C7.85088 3.03126 8.39971 2.48242 9.07858 2.48242Z" fill="#F4F4EC"/>
</svg>
