<svg width="36" height="35" viewBox="0 0 56 55" fill="none" xmlns="http://www.w3.org/2000/svg">
<g clip-path="url(#clip0_2_1858)">
<path d="M-0.000107138 16.97C-0.0701071 8.61 3.15989 3.35 9.74989 1.14C15.7099 -0.890002 20.8299 1.26 25.9699 7.98C26.3499 8.49 26.7299 9.05 27.3699 9.88C31.0299 4.18 35.2199 -0.0700023 42.3099 -2.26533e-06C51.0499 0.119998 57.1899 6.9 55.8099 15.77C53.3399 31.48 43.9599 43.01 32.3699 53.02C30.5299 54.67 28.3199 54.79 25.9099 53.97C14.1899 49.85 0.0598929 29.65 -0.000107138 16.97Z" fill="#F5F4EC"/>
<path d="M41.0198 23.94C41.0598 25.72 39.1598 28.01 37.7498 28.03C36.2498 28.05 36.0198 26.97 35.9898 25.82C35.9198 23.83 37.3098 21.84 38.6998 21.86C40.1698 21.88 40.8198 22.81 41.0198 23.94Z" fill="#5E584E"/>
<path d="M34.6298 19.78C34.1698 20.93 33.4598 21.93 32.1398 22.16C30.9498 22.38 29.7998 20.82 29.8198 18.76C29.9298 17.72 30.2298 16.4 31.5998 15.79C32.6598 15.31 33.5898 15.94 34.3098 16.72C35.1598 17.63 35.0198 18.71 34.6298 19.77V19.78Z" fill="#5E584E"/>
<path d="M25.7899 19.41C25.7699 21.29 24.9399 22.51 23.6699 22.49C22.1299 22.47 20.5899 20.34 20.6399 18.31C20.6899 16.84 21.3999 16.08 22.8699 16.03C24.6699 16.01 25.8199 17.33 25.7999 19.41H25.7899Z" fill="#5E584E"/>
<path d="M19.6399 26.52C19.5499 27.32 19.7899 28.67 18.4299 28.97C17.0199 29.29 16.2599 28.21 15.6599 27.13C15.5499 26.91 15.4399 26.7 15.3599 26.48C14.9499 25.37 14.7099 24.23 15.6199 23.27C16.2099 22.66 17.0699 22.47 17.9399 22.84C19.1299 23.36 19.5599 24.36 19.6499 25.57C19.6699 25.81 19.6499 26.05 19.6499 26.52H19.6399Z" fill="#5E584E"/>
<path d="M37.7698 35.75C37.7898 38.61 36.6898 40.41 34.4398 41.16C32.3998 41.85 30.6498 41.12 28.8898 38.82C28.7598 38.65 28.6298 38.45 28.4098 38.17C27.1598 40.12 25.7198 41.57 23.2998 41.55C20.3098 41.51 18.2098 39.19 18.6798 36.16C19.5298 30.79 22.7298 26.84 26.6998 23.42C27.3298 22.86 28.0898 22.81 28.9098 23.1C32.9198 24.51 37.7498 31.42 37.7698 35.75Z" fill="#5E584E"/>
</g>
<defs>
<clipPath id="clip0_2_1858">
<rect width="56" height="54.46" fill="white"/>
</clipPath>
</defs>
</svg>
