<svg width="20" height="12" viewBox="0 0 20 12" fill="none" xmlns="http://www.w3.org/2000/svg">
<path d="M19.5556 0H0.444444C0.2 0 0 0.2 0 0.444444V11.5556C0 11.8 0.2 12 0.444444 12H19.5556C19.8 12 20 11.8 20 11.5556V0.444444C20 0.2 19.8 0 19.5556 0ZM0.888889 1.28889L7.62222 6L0.888889 10.7111V1.28889ZM10 6.57778L1.86667 0.888889H18.1556L10 6.57778ZM8.4 6.53333L9.73333 7.46667C9.8 7.51111 9.88889 7.55556 9.97778 7.55556C10.0667 7.55556 10.1556 7.53333 10.2222 7.46667L11.5556 6.53333L18.1333 11.1111H1.86667L8.4 6.53333ZM12.3778 6L19.1111 1.28889V10.6889L12.3778 6Z" fill="#F4F4EC"/>
</svg>
