<svg width="110" height="110" viewBox="0 0 110 110" fill="none" xmlns="http://www.w3.org/2000/svg">
    <g clip-path="url(#clip0)">
        <path d="M51.4756 103.753C51.4756 103.753 73.2726 104.37 75.3661 103.877C75.4893 103.877 105.537 89.4539 107.877 88.4677C108.246 88.3444 108 87.7281 107.631 87.7281L85.0947 83.6602L84.3559 86.8652L51.4756 103.753Z" fill="#403C36"/>
        <path d="M1.60056 35.9546C1.10797 36.0779 0.738532 36.571 0.738532 37.0641C0.492238 40.5156 1.10797 49.8842 0.738532 55.0615C0.369091 60.1156 0.861679 78.6062 0.984826 82.7974C0.984826 83.2905 1.35427 83.7836 1.72371 83.9068C5.41812 85.2628 21.6735 91.1798 27.092 93.3986C33.2494 95.9873 49.8742 103.014 51.352 103.137C52.8298 103.384 84.2323 88.4678 85.2174 87.9747C85.5869 87.7282 85.8332 87.3584 85.8332 86.9886C85.8332 81.1949 86.2026 41.3785 86.2026 40.0225V38.5433C86.2026 38.5433 40.1456 28.8049 37.0669 28.3119C35.2197 28.0653 6.89589 34.7219 1.60056 35.9546Z" fill="#F4F4EC"/>
        <path d="M1.60056 35.9546C1.10797 36.0779 0.738532 36.571 0.738532 37.0641C0.492238 40.5156 1.10797 49.8842 0.738532 55.0615C0.369091 60.1156 0.861679 78.6062 0.984826 82.7974C0.984826 83.2905 1.35427 83.7835 1.72371 83.9068C5.41812 85.2628 21.6735 91.1798 27.092 93.3986C33.2494 95.9873 49.8742 103.014 51.352 103.137C52.8298 103.384 84.2323 88.4678 85.2174 87.9747C85.5869 87.7282 85.8332 87.3584 85.8332 86.9886C85.8332 81.1949 86.2026 41.3785 86.2026 40.0225V38.5433C86.2026 38.5433 40.1456 28.8049 37.0669 28.3119C35.2197 28.0653 6.89589 34.7219 1.60056 35.9546Z" stroke="#403C36" stroke-miterlimit="10" stroke-linecap="round" stroke-linejoin="round"/>
        <path d="M1.1084 36.6943L49.2589 47.5421C49.8746 47.6654 50.2441 48.1585 50.2441 48.7748C50.1209 56.1711 50.983 102.767 50.983 102.767" fill="#F4F4EC"/>
        <path d="M1.1084 36.6943L49.2589 47.5421C49.8747 47.6654 50.2441 48.1585 50.2441 48.7748C50.1209 56.1711 50.983 102.767 50.983 102.767" stroke="#403C36" stroke-miterlimit="10" stroke-linecap="round" stroke-linejoin="round"/>
        <path d="M85.9568 38.79L50.2441 47.6655" stroke="#403C36" stroke-miterlimit="10" stroke-linecap="round" stroke-linejoin="round"/>
        <path d="M17.7334 64.43C17.7334 59.2527 16.0093 55.6778 13.7927 54.9382C11.4529 54.1986 9.23623 54.815 8.98994 59.4992C8.74364 64.1835 8.98993 69.2376 9.85196 70.5936C10.714 71.9495 12.8075 73.7986 14.7778 73.5521C16.7482 73.1822 17.9797 71.9495 17.7334 64.43ZM13.1769 69.7307C11.576 69.6074 11.6992 66.0326 11.8223 62.4577C11.9455 58.8829 12.0686 58.3898 12.8075 58.5131C14.5316 58.7596 14.4084 61.3483 14.4084 62.3344C14.4084 63.3206 14.901 69.8539 13.1769 69.7307Z" fill="#403C36"/>
        <path d="M18.7188 56.4175V74.7848C18.7188 75.0313 21.7974 75.8942 21.7974 75.8942L21.6743 57.0338L18.7188 56.4175Z" fill="#403C36"/>
        <path d="M22.7822 57.5269V75.8942C22.7822 76.1407 25.8609 77.0036 25.8609 77.0036L25.7378 58.1432L22.7822 57.5269Z" fill="#403C36"/>
        <path d="M26.9689 58.7598C26.9689 58.7598 26.8457 62.5812 26.8457 62.951C26.8457 63.1975 29.8012 63.8139 29.8012 63.8139V59.4994L26.9689 58.7598Z" fill="#403C36"/>
        <path d="M26.9689 63.937C26.9689 63.937 26.8457 77.0037 26.8457 77.3735C26.8457 77.62 29.8012 78.4829 29.8012 78.4829V64.5534L26.9689 63.937Z" fill="#403C36"/>
        <path d="M39.5301 75.1545C38.0523 75.2778 36.2051 75.4011 36.2051 75.4011C36.2051 75.4011 36.3282 76.8803 35.4662 76.8803C34.6042 76.8803 34.481 75.8942 34.481 74.5382C34.481 74.2916 39.2838 74.1684 39.2838 74.1684C39.2838 74.1684 39.7764 68.0048 35.9588 66.4023C32.1412 64.7998 30.7866 68.3747 31.0329 73.0589C31.2792 77.2501 32.1412 80.4552 36.3282 80.825C38.668 80.9482 39.6532 78.6061 39.5301 75.1545ZM34.8505 69.6074C36.082 69.6074 35.9588 71.8262 35.9588 71.8262L34.2347 71.9495C34.2347 71.8262 33.9885 69.6074 34.8505 69.6074Z" fill="#403C36"/>
        <path d="M22.29 31.2705L67.6082 43.351" stroke="#403C36" stroke-miterlimit="10" stroke-linecap="round" stroke-linejoin="round"/>
        <path d="M55.7852 12.04C57.0167 12.1633 58.0019 10.9306 58.0019 9.5746C57.8787 8.58844 56.7704 7.479 55.5389 7.479C54.6769 7.60227 53.6917 8.58844 53.6917 9.82114C53.5686 10.684 54.0612 12.04 55.7852 12.04Z" fill="#F4F4EC"/>
        <path d="M55.7852 12.04C57.0167 12.1633 58.0019 10.9306 58.0019 9.5746C57.8787 8.58844 56.7704 7.479 55.5389 7.479C54.6769 7.60227 53.6917 8.58844 53.6917 9.82114C53.5686 10.684 54.0612 12.04 55.7852 12.04Z" stroke="#403C36" stroke-miterlimit="10"/>
        <path d="M31.4027 23.8743C32.3878 23.8743 33.1267 23.0114 33.0036 22.0253C33.0036 21.2856 32.1415 20.4228 31.1564 20.546C30.5406 20.546 29.8018 21.4089 29.8018 22.2718C29.8018 22.8882 30.1712 23.7511 31.4027 23.8743Z" fill="#F4F4EC"/>
        <path d="M31.4027 23.8743C32.3878 23.8743 33.1267 23.0114 33.0036 22.0253C33.0036 21.2856 32.1415 20.4228 31.1564 20.546C30.5406 20.546 29.8018 21.4089 29.8018 22.2718C29.8018 22.8882 30.1712 23.7511 31.4027 23.8743Z" stroke="#403C36" stroke-miterlimit="10"/>
        <path d="M20.196 13.0266C21.4275 13.0266 22.2895 12.0404 22.1664 10.8077C22.1664 9.94482 21.0581 8.83539 19.8266 8.95866C18.9646 9.08193 18.1025 9.94482 18.1025 11.0543C18.1025 11.7939 18.5951 13.0266 20.196 13.0266Z" fill="#F4F4EC"/>
        <path d="M20.196 13.0266C21.4275 13.0266 22.2895 12.0404 22.1664 10.8077C22.1664 9.94482 21.0581 8.83539 19.8266 8.95866C18.9646 9.08193 18.1025 9.94482 18.1025 11.0543C18.1025 11.7939 18.5951 13.0266 20.196 13.0266Z" stroke="#403C36" stroke-miterlimit="10"/>
        <path d="M64.7758 24.4908L61.8203 17.4644" stroke="#403C36" stroke-miterlimit="10" stroke-linecap="round" stroke-linejoin="round"/>
        <path d="M66.869 19.4365L59.8496 22.395" stroke="#403C36" stroke-miterlimit="10" stroke-linecap="round" stroke-linejoin="round"/>
        <path d="M64.775 17.7109L61.6963 24.6141" stroke="#403C36" stroke-miterlimit="10" stroke-linecap="round" stroke-linejoin="round"/>
        <path d="M59.6035 18.8203L66.8692 22.765" stroke="#403C36" stroke-miterlimit="10" stroke-linecap="round" stroke-linejoin="round"/>
        <path d="M43.9633 16.4778L39.8994 6.61621" stroke="#403C36" stroke-miterlimit="10" stroke-linecap="round" stroke-linejoin="round"/>
        <path d="M46.7961 9.45166L36.9443 13.6429" stroke="#403C36" stroke-miterlimit="10" stroke-linecap="round" stroke-linejoin="round"/>
        <path d="M43.9635 6.98633L39.6533 16.7247" stroke="#403C36" stroke-miterlimit="10" stroke-linecap="round" stroke-linejoin="round"/>
        <path d="M37.5596 9.32812L47.9039 14.752" stroke="#403C36" stroke-miterlimit="10" stroke-linecap="round" stroke-linejoin="round"/>
    </g>
    <defs>
        <clipPath id="clip0">
            <rect width="108" height="98" fill="white" transform="translate(0 6)"/>
        </clipPath>
    </defs>
</svg>