<svg width="469" height="231" viewBox="0 0 469 231" fill="none" xmlns="http://www.w3.org/2000/svg">
<g clip-path="url(#clip0)">
<path d="M75.0414 231.491C20.4071 231.491 -0.492188 193.483 -0.492188 126.968V103.868C-0.492188 37.3531 20.4071 -0.655396 75.0414 -0.655396C129.347 -0.655396 150.411 37.3531 150.411 103.868V126.968C150.411 193.647 129.347 231.491 75.0414 231.491ZM75.0414 186.602C90.8393 186.602 94.2952 172.513 94.2952 151.87V79.1297C94.2952 58.4871 90.8393 44.3978 75.0414 44.3978C59.079 44.3978 55.7878 58.4871 55.7878 79.1297V151.87C55.7878 172.513 59.079 186.602 75.0414 186.602Z" fill="#A69991"/>
<path d="M211.461 2.29367V228.543H160.282V2.29367H211.461Z" fill="#A69991"/>
<path d="M272.513 2.29367V228.543H221.334V2.29367H272.513Z" fill="#A69991"/>
<path d="M333.729 2.29367V53.2447H282.55V2.29367H333.729ZM333.729 63.2384V228.706H282.55V63.2384H333.729Z" fill="#A69991"/>
<path d="M407.122 231.491C362.691 231.491 343.766 202.166 343.766 153.181V143.679C343.766 94.2022 362.691 60.9447 408.439 60.9447C450.402 60.9447 468.997 89.4511 468.997 136.47V139.911L393.957 166.943C393.957 180.868 399.388 187.585 407.616 187.585C417.325 187.585 420.287 179.066 420.287 167.926L468.997 150.723V160.553C468.997 201.838 448.756 231.491 407.122 231.491ZM393.793 134.504L419.958 124.838C419.135 109.111 415.679 104.523 407.945 104.523C399.059 104.36 393.793 111.404 393.793 134.504Z" fill="#A69991"/>
</g>
<defs>
<clipPath id="clip0">
<rect width="469" height="231" fill="white"/>
</clipPath>
</defs>
</svg>
