<?xml version="1.0" encoding="UTF-8" standalone="no"?>
<!-- Created with Keyshape -->
<svg xmlns="http://www.w3.org/2000/svg" width="141" height="185" viewBox="0 0 141 185" fill="none">
    <style>
@keyframes a0_t { 0% { transform: translate(98.66675px,9.62992px); } 50% { transform: translate(98.66675px,8.62992px); } 100% { transform: translate(98.66675px,9.62992px); } }
@keyframes a1_t { 0% { transform: translate(31.25934px,46.93843px); } 50% { transform: translate(30.25934px,47.93843px); } 100% { transform: translate(31.25934px,46.93843px); } }
@keyframes a2_t { 0% { transform: translate(11.99998px,20.86444px); } 50% { transform: translate(12.62568px,20.59734px); } 100% { transform: translate(11.99998px,20.86444px); } }
@keyframes a3_t { 0% { transform: translate(133.581px,31.938px) rotate(0deg) translate(-6.4195px,-6.2588px); } 50% { transform: translate(132.581px,32.938px) rotate(3deg) translate(-6.4195px,-6.2588px); } 100% { transform: translate(133.581px,31.938px) rotate(0deg) translate(-6.4195px,-6.2588px); } }
@keyframes a4_t { 0% { transform: translate(62.6464px,9.84865px) rotate(0deg) translate(-9.52285px,-8.84865px); } 50% { transform: translate(61.6464px,10.8487px) rotate(-2deg) translate(-9.52285px,-8.84865px); } 100% { transform: translate(62.6464px,9.84865px) rotate(0deg) translate(-9.52285px,-8.84865px); } }
@keyframes a6_t { 0% { transform: translate(41.5px,169px) rotate(44deg); animation-timing-function: cubic-bezier(0.42,0,1,1); } 50% { transform: translate(41.5px,169px) rotate(0deg); animation-timing-function: cubic-bezier(0,0,0.58,1); } 100% { transform: translate(41.5px,169px) rotate(44deg); } }
@keyframes a5_t { 0% { transform: skewX(19deg) skewY(-6deg) translate(-40.5px,-169px); } 50% { transform: skewX(0deg) skewY(0deg) translate(-40.5px,-169px); } 100% { transform: skewX(19deg) skewY(-6deg) translate(-40.5px,-169px); } }
@keyframes a5_d { 0% { d: path('M38.9474,163.642C38.9474,163.642,37.2067,164.048,35.2151,164.287C27.0453,165.266,8.25524,165.453,5.97017,142.561C5.91284,141.271,3.906,141.273,3.70531,142.402C-2.00332,183.181,44.378,173.688,44.378,173.688'); } 50% { d: path('M40.7073,163.698C40.7073,163.698,39.7389,164.017,38.0875,164.308C31.3131,165.503,13.0442,166.23,2.97017,142.561C2.91284,141.271,0.906,141.273,0.70531,142.402C5,180.5,41,177,41,177'); } 100% { d: path('M38.9474,163.642C38.9474,163.642,37.2067,164.048,35.2151,164.287C27.0453,165.266,8.25524,165.453,5.97017,142.561C5.91284,141.271,3.906,141.273,3.70531,142.402C-2.00332,183.181,44.378,173.688,44.378,173.688'); } }
@keyframes a7_t { 0% { transform: translate(89.00002px,46.50172px); animation-timing-function: cubic-bezier(0.42,0,1,1); } 50% { transform: translate(89.00002px,47.50172px); animation-timing-function: cubic-bezier(0,0,0.58,1); } 100% { transform: translate(89.00002px,46.50172px); } }
@keyframes a8_d { 0% { d: path('M103,68.9881C103,68.9881,88.5,72.5,87,64.5017'); animation-timing-function: cubic-bezier(0.42,0,1,1); } 50% { d: path('M103,68.9881C103,68.9881,88,71.5,87,66'); animation-timing-function: cubic-bezier(0,0,0.58,1); } 100% { d: path('M103,68.9881C103,68.9881,88.5,72.5,87,64.5017'); } }
    </style>
    <g transform="translate(102.427,13.6301) translate(-3.76025,-4.00018)" style="animation: 0.8s linear infinite both a0_t;">
        <path d="M102.335,17.6153C104.475,17.8312,106.187,15.6729,106.187,13.2989C105.973,11.5723,104.047,9.62988,101.907,9.62988C100.41,9.84571,98.6976,11.5723,98.6976,13.7305C98.4836,15.2413,99.3396,17.6153,102.335,17.6153Z" fill="#E8E4D7" transform="translate(3.76025,4.00018) translate(-102.427,-13.6301)"/>
        <path d="M102.335,17.6153C104.475,17.8312,106.187,15.6729,106.187,13.2989C105.973,11.5723,104.047,9.62988,101.907,9.62988C100.41,9.84571,98.6976,11.5723,98.6976,13.7305C98.4836,15.2413,99.3396,17.6153,102.335,17.6153Z" stroke="#5E584E" stroke-width="2" stroke-miterlimit="10" transform="translate(3.76025,4.00018) translate(-102.427,-13.6301)"/>
    </g>
    <g transform="translate(34.0529,49.8624) translate(-2.79356,-2.92397)" style="animation: 0.8s linear infinite both a1_t;">
        <path d="M34.0412,52.7864C35.7531,52.7864,37.037,51.2757,36.8231,49.5491C36.8231,48.2541,35.3251,46.7434,33.6132,46.9592C32.3292,46.9592,31.2593,48.47,31.2593,49.9807C31.2593,51.0598,31.9013,52.5706,34.0412,52.7864Z" fill="#E8E4D7" transform="translate(2.79356,2.92397) translate(-34.0529,-49.8624)"/>
        <path d="M34.0412,52.7864C35.7531,52.7864,37.037,51.2757,36.8231,49.5491C36.8231,48.2541,35.3251,46.7434,33.6132,46.9592C32.3292,46.9592,31.2593,48.47,31.2593,49.9807C31.2593,51.0598,31.9013,52.5706,34.0412,52.7864Z" stroke="#5E584E" stroke-width="2" stroke-miterlimit="10" transform="translate(2.79356,2.92397) translate(-34.0529,-49.8624)"/>
    </g>
    <g transform="translate(15.541,24.4338) translate(-3.54102,-3.56936)" style="animation: 0.8s linear infinite both a2_t;">
        <path d="M15.6379,28.0032C17.7778,28.0032,19.2757,26.2766,19.0617,24.1184C19.0617,22.6076,17.1358,20.6652,14.9959,20.881C13.4979,21.0969,12,22.6076,12,24.55C12.214,25.845,13.07,28.0032,15.6379,28.0032Z" stroke="#5E584E" stroke-width="2" stroke-miterlimit="10" transform="translate(3.54102,3.56936) translate(-15.541,-24.4338)"/>
    </g>
    <g transform="translate(133.581,31.938) translate(-6.4195,-6.2588)" style="animation: 0.8s linear infinite both a3_t;">
        <path d="M136.362,37.9811L131.227,25.6792" stroke="#5E584E" stroke-width="2" stroke-miterlimit="10" stroke-linecap="round" stroke-linejoin="round" transform="translate(6.6335,6.15095) translate(-133.795,-31.8301)"/>
        <path d="M140,29.1323L127.803,34.312" stroke="#5E584E" stroke-width="2" stroke-miterlimit="10" stroke-linecap="round" stroke-linejoin="round" transform="translate(6.7405,6.04295) translate(-133.901,-31.7221)"/>
        <path d="M136.362,26.1107L131.012,38.1968" stroke="#5E584E" stroke-width="2" stroke-miterlimit="10" stroke-linecap="round" stroke-linejoin="round" transform="translate(6.526,6.47455) translate(-133.687,-32.1538)"/>
        <path d="M127.161,28.0532L140,34.9595" stroke="#5E584E" stroke-width="2" stroke-miterlimit="10" stroke-linecap="round" stroke-linejoin="round" transform="translate(6.4195,5.82715) translate(-133.581,-31.5063)"/>
    </g>
    <g transform="translate(62.6464,9.84865) translate(-9.52285,-8.84865)" style="animation: 0.8s linear infinite both a4_t;">
        <path d="M65.321,18.2658L58.2593,1" stroke="#5E584E" stroke-width="2" stroke-miterlimit="10" stroke-linecap="round" stroke-linejoin="round" transform="translate(8.66665,8.6329) translate(-61.7901,-9.6329)"/>
        <path d="M70.2429,5.96368L53.1235,13.3017" stroke="#5E584E" stroke-width="2" stroke-miterlimit="10" stroke-linecap="round" stroke-linejoin="round" transform="translate(8.5597,8.63269) translate(-61.6832,-9.63269)"/>
        <path d="M65.3213,1.64728L57.8315,18.6973" stroke="#5E584E" stroke-width="2" stroke-miterlimit="10" stroke-linecap="round" stroke-linejoin="round" transform="translate(8.4529,9.17229) translate(-61.5764,-10.1723)"/>
        <path d="M54.1938,5.74823L72.1692,15.2444" stroke="#5E584E" stroke-width="2" stroke-miterlimit="10" stroke-linecap="round" stroke-linejoin="round" transform="translate(10.058,9.49631) translate(-63.1815,-10.4963)"/>
    </g>
    <path d="M96.5587,122.502C94.5789,145.545,98.0985,169.235,98.5384,176.988C100.298,177.849,106.017,180.649,100.958,181.295C95.8987,181.941,91.7193,180.865,91.7193,180.865C91.7193,180.865,88.1997,155.667,86,145.545" fill="#E8E4D7" transform="translate(94.4999,152.002) translate(-94.4999,-152.002)"/>
    <path d="M96.5587,122.502C94.5789,145.545,98.0985,169.235,98.5384,176.988C100.298,177.849,106.017,180.649,100.958,181.295C95.8987,181.941,91.7193,180.865,91.7193,180.865C91.7193,180.865,88.1997,155.667,86,145.545" stroke="#5E584E" stroke-width="2" stroke-miterlimit="10" stroke-linecap="round" stroke-linejoin="round" transform="translate(94.4999,152.002) translate(-94.4999,-152.002)"/>
    <path d="M87.5026,113.502C79.7552,139.14,85.289,177.597,85.5104,178.024C87.2812,178.879,93.0364,181.656,87.9453,182.297C82.8541,182.938,78.6484,181.87,78.6484,181.87C78.6484,181.87,75.9922,164.35,74,152.813" stroke="#5E584E" stroke-width="2" stroke-miterlimit="10" stroke-linecap="round" stroke-linejoin="round" transform="translate(82,148.002) translate(-82,-148.002)"/>
    <path d="M68.7692,182.502C68.7692,182.502,73.6154,182.502,74.0769,179.112C75,174.027,63,175.086,63,175.086L75,157.502" stroke="#5E584E" stroke-width="2" stroke-miterlimit="10" stroke-linecap="round" stroke-linejoin="round" transform="translate(69,170.002) translate(-69,-170.002)"/>
    <path d="M57.8799,144.301C81.2509,128.578,83.163,151.625,53.6307,176.179C55.9678,177.256,65.5286,176.825,68.7156,177.902C71.9025,178.979,71.4776,183.071,68.0782,183.071C65.5286,183.071,45.3446,183.502,45.3446,183.502C30.2598,180.917,59.3672,101.87,58.5173,78.8241C57.6675,54.7009,52.1434,44.5777,66.8034,34.0238C73.8147,29.07,91.6615,29.2853,101.01,54.7009C133.092,55.5624,114.395,67.8394,104.834,69.5625C101.86,70.2087,79.9761,75.8087,87.4123,87.4396C95.6983,100.363,99.7351,112.209,97.6105,120.394C95.4859,128.363,83.163,151.409,83.163,151.409" stroke="#5E584E" stroke-width="2" stroke-miterlimit="10" stroke-linecap="round" stroke-linejoin="round" transform="translate(80,107.502) translate(-80,-107.502)"/>
    <g style="animation: 0.8s linear infinite both a6_t;">
        <path d="M38.9474,163.642C38.9474,163.642,37.2067,164.048,35.2151,164.287C27.0453,165.266,8.25524,165.453,5.97017,142.561C5.91284,141.271,3.906,141.273,3.70531,142.402C-2.00332,183.181,44.378,173.688,44.378,173.688" stroke="#5E584E" stroke-width="2" stroke-miterlimit="10" transform="translate(41.5,169) rotate(44) skewX(19) skewY(-6) translate(-40.5,-169)" style="animation: 0.8s linear infinite both a5_t, 0.8s linear infinite both a5_d;"/>
    </g>
    <path d="M58.283,86.7484C58.283,86.7484,73.2516,92.915,87.7925,86.5017L91,93.1617C91,93.1617,76.4591,103.522,57,95.3817C57.6415,92.4217,58.283,86.7484,58.283,86.7484Z" fill="#5E584E" transform="translate(74,92.5018) translate(-74,-92.5018)"/>
    <path d="M55.7791,99.5017C55.7791,99.5017,70.1217,106.646,67.7313,112.058C65.5581,117.254,61.2119,116.821,61.8638,121.368C62.5158,125.914,61.4292,129.811,55.1271,133.708C48.8251,137.388,46,141.502,46,141.502L55.7791,99.5017Z" fill="#5E584E" transform="translate(57,120.502) translate(-57,-120.502)"/>
    <path d="M96.8367,107.621C94.5746,104.157,92.7649,109.353,93.2173,114.766C93.6697,120.18,93.2173,118.231,91.4076,124.943C89.5978,131.655,90.0503,137.502,90.0503,137.502C90.0503,137.502,104.302,118.88,96.8367,107.621Z" fill="#5E584E" transform="translate(94.5,122.002) translate(-94.5,-122.002)"/>
    <path d="M65,44.5017C66.9102,46.7051,72.0039,50.4509,70.7305,54.8576C69.2448,59.4848,71.3672,61.4678,70.9427,64.9932C70.5182,68.5187,66.0612,70.5017,66.0612,70.5017L65,44.5017Z" fill="#5E584E" transform="translate(68,57.5017) translate(-68,-57.5017)"/>
    <path d="M84,33.5017C84,43.4528,79.4247,81.9868,71.5219,83.4688C63.827,84.9509,65.0748,35.8307,65.0748,35.8307" stroke="#5E584E" stroke-width="2" stroke-miterlimit="10" transform="translate(74.5,58.5017) translate(-74.5,-58.5017)"/>
    <path d="M115,56C115,56,112.204,61.6174,115.946,64.0711C119.687,66.5248,118.939,57.6915,118.939,57.6915L115,56Z" fill="#5E584E" transform="translate(116.5,59.5017) translate(-116.5,-59.5017)"/>
    <g transform="translate(92,52.0017) translate(-2.99998,-5.49998)" style="animation: 0.8s linear infinite both a7_t;">
        <path d="M93.9765,53.4769C94.1651,50.8125,93.2223,46.3035,90.9596,46.5085C88.6969,46.7134,88.6969,53.067,89.4511,54.5017" stroke="#5E584E" stroke-width="2" stroke-miterlimit="10" stroke-linecap="round" transform="translate(2.49997,3.99998) translate(-91.5,-50.5017)"/>
        <path d="M95,55.4073C94.813,52.794,93.1302,51.6062,91.6344,53.2692C90.5125,54.6946,91.0734,57.0702,91.8214,57.3078C94.4391,58.258,95,55.4073,95,55.4073Z" fill="#5E584E" transform="translate(3.99996,8.49996) translate(-93,-55.0017)"/>
    </g>
    <path d="M103,68.9881C103,68.9881,88.5,72.5,87,64.5017" stroke="#5E584E" stroke-width="2" stroke-miterlimit="10" stroke-linecap="round" transform="translate(95,68.0017) translate(-95,-68.0017)" style="animation: 0.8s linear infinite both a8_d;"/>
</svg>
