<svg width="20" height="20" viewBox="0 0 31 32" fill="none" xmlns="http://www.w3.org/2000/svg">
    <path d="M11.6591 9.72683C12.2302 9.13495 12.551 8.33281 12.551 7.49651C12.551 6.66021 12.2302 5.85808 11.6591 5.2662L8.42429 1.9238C7.85251 1.3323 7.07702 1 6.26841 1C5.4598 1 4.68432 1.3323 4.11253 1.9238L2.33958 3.75932C1.59362 4.52982 1.1284 5.54365 1.02292 6.62869C0.917437 7.71372 1.17819 8.80309 1.7609 9.71182C6.98208 17.842 13.7196 24.8121 21.5784 30.2135C22.4571 30.8156 23.5099 31.0851 24.5586 30.9765C25.6073 30.8679 26.5876 30.3879 27.3335 29.6176L29.1065 27.7821C29.3898 27.4893 29.6145 27.1416 29.7678 26.7589C29.9211 26.3762 30 25.966 30 25.5518C30 25.1375 29.9211 24.7273 29.7678 24.3446C29.6145 23.9619 29.3898 23.6142 29.1065 23.3214L25.873 19.9763C25.59 19.6833 25.2539 19.4508 24.884 19.2922C24.5141 19.1336 24.1176 19.052 23.7171 19.052C23.3167 19.052 22.9202 19.1336 22.5503 19.2922C22.1804 19.4508 21.8443 19.6833 21.5612 19.9763L20.483 21.0918C16.8697 18.0156 13.5534 14.5839 10.5808 10.8451L11.6591 9.72683Z" stroke="#5E584E" stroke-width="1.25" stroke-linecap="round" stroke-linejoin="round"/>
</svg>
