<svg width="11" height="21" viewBox="0 0 11 21" fill="none" xmlns="http://www.w3.org/2000/svg">
<path d="M1.19565 0C0.533258 0 0 0.533258 0 1.19565V19.3696C0 20.032 0.533258 20.5652 1.19565 20.5652H9.80435C10.4667 20.5652 11 20.032 11 19.3696V1.19565C11 0.533258 10.4667 0 9.80435 0H1.19565ZM0.956522 2.3913H10.0435V17.2174H0.956522V2.3913ZM5.5 17.9348C6.02827 17.9348 6.45652 18.363 6.45652 18.8913C6.45652 19.4196 6.02827 19.8478 5.5 19.8478C4.97172 19.8478 4.54348 19.4196 4.54348 18.8913C4.54348 18.363 4.97172 17.9348 5.5 17.9348Z" fill="#F4F4EC"/>
</svg>
