<svg width="20" height="20" viewBox="0 0 20 20" fill="none" xmlns="http://www.w3.org/2000/svg">
<path d="M9.99649 0.00439481C8.01867 0.00509028 6.08548 0.59226 4.44138 1.69165C2.79727 2.79104 1.5161 4.35328 0.759865 6.18081C0.00363102 8.00833 -0.193696 10.0191 0.192838 11.9587C0.579372 13.8984 1.53241 15.6799 2.93142 17.0779C4.33044 18.476 6.11261 19.4278 8.05255 19.8129C9.9925 20.1981 12.0031 19.9994 13.8301 19.2418C15.6571 18.4843 17.2184 17.202 18.3167 15.5572C19.4149 13.9123 20.0007 11.9787 20 10.0009C19.9988 7.3488 18.9442 4.80582 17.0682 2.93118C15.1923 1.05655 12.6486 0.00377299 9.99649 0.00439481ZM14.6162 15.8605C14.5574 15.9671 14.471 16.0561 14.3661 16.1179C14.2611 16.1798 14.1415 16.2123 14.0197 16.2121C13.902 16.2136 13.786 16.1841 13.6834 16.1265C12.3994 15.4212 10.9866 14.9814 9.52915 14.8334C8.07169 14.6854 6.59935 14.8323 5.19982 15.2651C5.02576 15.3194 4.83727 15.3024 4.67576 15.2178C4.51425 15.1332 4.39293 14.988 4.33845 14.814C4.22947 14.4542 4.43104 13.6854 4.79082 13.5682C5.97015 13.2077 7.19642 13.024 8.42963 13.0233C10.4997 13.0235 12.536 13.5476 14.349 14.5468C14.683 14.7296 14.8002 15.5277 14.6162 15.8628V15.8605ZM15.8866 12.0963C15.7459 12.3705 15.4647 12.8158 15.1834 12.8158C15.0542 12.8158 14.9268 12.7848 14.8119 12.7256C11.7185 11.1267 8.13763 10.7473 4.77792 11.6627C4.67643 11.6905 4.57042 11.6981 4.466 11.6849C4.36158 11.6716 4.2608 11.6379 4.16944 11.5857C4.07808 11.5334 3.99795 11.4636 3.93364 11.3803C3.86932 11.297 3.8221 11.2018 3.79468 11.1001C3.67749 10.6677 3.92946 9.9411 4.35603 9.82509C8.10353 8.80777 12.0964 9.23436 15.5444 11.0204C15.6385 11.0681 15.7223 11.1341 15.7906 11.2145C15.859 11.2949 15.9106 11.3882 15.9425 11.4888C15.9743 11.5894 15.9858 11.6954 15.9762 11.8005C15.9666 11.9056 15.9361 12.0078 15.8866 12.101V12.0963ZM16.4174 9.07623C16.2779 9.07546 16.1402 9.04384 16.0143 8.98365C13.6608 7.80315 11.0626 7.19256 8.42963 7.20116C7.04719 7.20272 5.66999 7.37113 4.32791 7.70274C4.09232 7.76162 3.843 7.72458 3.63469 7.59978C3.42639 7.47497 3.27613 7.27259 3.21693 7.03709C3.09974 6.54137 3.39271 5.95072 3.88023 5.82767C5.36915 5.46257 6.8966 5.27803 8.42963 5.27804C11.3441 5.27035 14.2198 5.94544 16.8264 7.24921C16.9349 7.30258 17.0318 7.37689 17.1115 7.46786C17.1911 7.55884 17.252 7.66467 17.2905 7.77927C17.3291 7.89387 17.3446 8.01497 17.3362 8.13559C17.3277 8.2562 17.2955 8.37396 17.2413 8.48207C17.0831 8.79966 16.7596 9.08092 16.421 9.08092L16.4174 9.07623Z" fill="#F4F4EC"/>
</svg>
