<svg width="17" height="20" viewBox="0 0 17 20" fill="none" xmlns="http://www.w3.org/2000/svg">
<path d="M16.9971 8.09194C16.8348 8.1079 16.672 8.11624 16.5088 8.11696C15.6282 8.11708 14.7614 7.89644 13.9867 7.47494C13.212 7.05345 12.5538 6.44437 12.0714 5.70269V13.9238C12.0714 17.2796 9.36904 20 6.0357 20C2.70237 20 0 17.2796 0 13.9238C0 10.568 2.70225 7.8476 6.0357 7.8476C6.16163 7.8476 6.28543 7.85957 6.40874 7.86688V10.8615C6.28483 10.8466 6.16306 10.8238 6.0357 10.8238C4.33437 10.8238 2.95578 12.2125 2.95578 13.9244C2.95578 15.6363 4.3352 17.025 6.0357 17.025C7.7362 17.025 9.24001 15.6755 9.24001 13.9623L9.26974 0H12.1153C12.3836 2.56882 14.441 4.57534 17 4.76365V8.0917" fill="#F4F4EC"/>
</svg>
