<svg width="18" height="18" viewBox="0 0 18 18" fill="none" xmlns="http://www.w3.org/2000/svg">
<g clip-path="url(#clip0)">
<circle cx="9" cy="9" r="9" fill="#EFBE7D"/>
<path d="M9.38231 10.984C9.39431 10.516 9.56231 10.264 10.0063 9.904C10.8583 9.22 11.5903 8.584 11.5903 7.54C11.5903 6.328 10.8103 5.296 9.04631 5.296C7.43831 5.296 6.40631 6.292 6.40631 7.84C6.40631 8.068 6.43031 8.308 6.47831 8.548L7.51031 8.596C7.45031 8.368 7.42631 8.14 7.42631 7.912C7.42631 6.808 8.00231 6.148 9.04631 6.148C10.0303 6.148 10.5103 6.772 10.5103 7.564C10.5103 8.452 9.88631 8.872 9.32231 9.328C8.68631 9.844 8.44631 10.3 8.44631 10.984H9.38231ZM8.27831 13H9.47831V11.8H8.27831V13Z" fill="#37332D"/>
</g>
<defs>
<clipPath id="clip0">
<rect width="18" height="18" fill="white"/>
</clipPath>
</defs>
</svg>
